HIERARCHY
ROOT Spine
{
    OFFSET 0.0 0.0 -0.0
    CHANNELS 6 Xposition Yposition Zposition Zrotation Xrotation Yrotation
    JOINT ShoulderCenter
    {
        OFFSET 0.0 28.334827423095703 0.0
        CHANNELS 3 Zrotation Xrotation Yrotation
        JOINT LeftShoulder
        {
            OFFSET 18.348060607910156 0.0 0.0
            CHANNELS 3 Zrotation Xrotation Yrotation
            JOINT LeftElbow
            {
                OFFSET 29.94134521484375 0.0 0.0
                CHANNELS 3 Zrotation Xrotation Yrotation
                JOINT LeftHand
                {
                    OFFSET 31.06193733215332 0.0 0.0
                    CHANNELS 3 Zrotation Xrotation Yrotation
                    End Site
                    {
                        OFFSET 12.424776077270508 0.0 0.0
                    }
                }
            }
        }
        JOINT RightShoulder
        {
            OFFSET -18.348060607910156 0.0 0.0
            CHANNELS 3 Zrotation Xrotation Yrotation
            JOINT RightElbow
            {
                OFFSET -29.94134521484375 0.0 0.0
                CHANNELS 3 Zrotation Xrotation Yrotation
                JOINT RightHand
                {
                    OFFSET -31.06193733215332 0.0 0.0
                    CHANNELS 3 Zrotation Xrotation Yrotation
                    End Site
                    {
                        OFFSET -12.424776077270508 0.0 0.0
                    }
                }
            }
        }
        End Site
        {
            OFFSET 0.0 11.333930969238281 0.0
        }
    }
    JOINT LeftHip
    {
        OFFSET 15.224000043583995 -15.224000043583995 0.0
        CHANNELS 3 Zrotation Xrotation Yrotation
        JOINT LeftKnee
        {
            OFFSET 0.0 -39.3104248046875 0.0
            CHANNELS 3 Zrotation Xrotation Yrotation
            JOINT LeftFoot
            {
                OFFSET 0.0 -45.1298942565918 0.0
                CHANNELS 3 Zrotation Xrotation Yrotation
                End Site
                {
                    OFFSET 0.0 0.0 18.051959991455078
                }
            }
        }
    }
    JOINT RightHip
    {
        OFFSET -15.224000043583995 -15.224000043583995 0.0
        CHANNELS 3 Zrotation Xrotation Yrotation
        JOINT RightKnee
        {
            OFFSET 0.0 -39.3104248046875 0.0
            CHANNELS 3 Zrotation Xrotation Yrotation
            JOINT RightFoot
            {
                OFFSET 0.0 -45.1298942565918 0.0
                CHANNELS 3 Zrotation Xrotation Yrotation
                End Site
                {
                    OFFSET 0.0 0.0 18.051959991455078
                }
            }
        }
    }
}
MOTION
Frames: 7
Frame Time: 0.03333333333333333
2.0 -7.0 54.400001525878906 -160.60793756438727 62.26170075531983 151.9315677898652 -1.322591382133322e-06 1.98998300308122e-07 13.609404887174481 136.16740665274978 -20.130439719759934 -177.06077563006878 1.2725543616553935e-06 3.1336595336604704e-06 115.87370392495487 -1.1927080055488188e-15 -1.5902773407317584e-15 7.951386703658792e-16 -57.1091550699554 4.191747582832089 30.789564282607575 3.308901876450994e-06 4.856512019305618e-06 -25.388175038427217 1.5902773407317584e-15 -6.3611093629270335e-15 8.827812596100317e-32 165.32151467494617 -51.89487624195377 -132.3313591315431 -6.930374368286533 -0.22882629933739837 -0.001806085442352824 -2.3854160110976384e-15 -7.951386703658794e-16 -1.391492673140289e-15 171.84647687561082 -62.45003607021375 111.58356694607536 6.569283429348484 -8.57735985018439 -0.6705931995244997 3.975693351829397e-16 -1.5902773407317588e-15 2.1617832600572342e-15
1.899999976158142 -6.899999618530273 54.5 -160.87477777749734 62.58191176360103 151.81453995582237 -3.7475141555799173e-07 -1.2846844038055798e-06 13.17494322893962 135.59488745478353 -19.341943298706482 -177.7868025129316 2.8584372909537832e-06 1.936425410611611e-06 116.16674149681731 -2.782985346280577e-15 1.5902773407317584e-15 3.862168010793889e-32 -53.99316292685003 -0.7663223831277995 31.032934462096705 1.738274508044611e-06 1.880685643132031e-06 -24.207444746923933 1.5902773407317584e-15 0.0 0.0 164.32868628230915 -51.95266468987253 -133.35297384168445 -6.938909016444058 0.14373765470241692 0.0003651917101573905 3.724233438979821e-32 7.951386703658792e-16 -5.367186024969684e-15 170.45754804848204 -62.698395268611705 110.41865938009603 6.558209057157278 -8.579622529417234 -0.6859254807540065 9.93923337957349e-16 -1.5902773407317584e-15 -5.888995777397293e-15
1.899999976158142 -6.700000286102295 54.79999923706055 -160.7306974092516 62.75069370022806 152.87527126804858 1.292382812759813e-06 2.216379089447629e-06 12.333167206133067 135.73109629149693 -19.3660877748091 -177.00474460920321 -3.913362550963587e-06 -1.170987781981712e-07 115.78889525910114 7.951386703658792e-16 0.0 0.0 -52.40285894998611 -3.182398857688461 31.32602742920455 1.9610321281622564e-06 -4.608958881361216e-06 -23.637895157989533 0.0 0.0 0.0 166.10469832155763 -53.060054621764955 -132.16297016808102 -7.00142545411239 -0.5934786915302737 0.002370210173869613 0.0 0.0 -3.776908684237927e-15 173.54980863313236 -62.74205078484062 112.59306026037332 6.47235697830253 -8.547298729959117 -0.7354549517309349 -5.963540027744095e-16 -1.5902773407317584e-15 -4.919920522888878e-15
1.7999999523162842 -6.599999904632568 54.900001525878906 -159.86369676606537 63.1976763624993 151.23824144815114 -4.5670575904494403e-07 -4.304476551324686e-07 13.250892058407855 135.638081878273 -19.308105133291843 -177.01026120258211 -4.591902761667819e-08 -2.0381382504279563e-06 115.75860455444808 -5.565970692561154e-15 -1.5902773407317584e-15 -7.724336021587778e-32 -51.59124422878653 -5.407113624933201 32.59295462307679 2.5192423319074373e-06 1.4318262561827246e-07 -22.990164959448737 -2.2069531490250793e-31 -7.95138670365879e-15 -3.1805546814635164e-15 164.1266338220316 -53.339053728686935 -134.06720596978175 -7.075153690424564 -0.09292026729286643 0.0015179744993451094 -7.951386703658794e-16 1.5902773407317588e-15 3.2799470152592526e-15 170.95650390746155 -63.50159979270255 110.41212059026908 6.380275401213599 -8.659179689417702 -0.8028466682335003 3.975693351829396e-16 -1.5902773407317584e-15 2.2860236773019026e-15
1.7000000476837158 -6.400000095367432 55.0 -159.12535315577378 63.56334139812376 150.4583981079812 9.098012790665238e-07 -1.0583305274100177e-06 13.220425202380806 135.75984817480702 -18.998206701883895 -176.80181246194454 5.856599589448633e-06 1.2614066425972949e-06 115.53010198182088 3.578124016646456e-15 1.5902773407317582e-15 7.95138670365879e-16 -54.88370721586642 -2.7626914082577962 34.66040276043824 -3.1981539425193457e-06 8.591654945915654e-07 -23.427380453399014 1.5902773407317584e-15 4.4139062980501586e-32 3.1805546814635168e-15 163.66311308943412 -54.03513247855613 -134.9431139999074 -6.9423599154732605 -0.31569026892320456 0.010744990638317162 -1.5902773407317588e-15 3.975693351829397e-16 7.951386703658794e-16 171.19359391841675 -63.74671357549747 110.14357183985433 6.232864380969299 -8.457013372799564 -0.8354393691669466 -1.9878466759146985e-16 1.8103912550596355e-33 -1.0436195048552167e-15
1.600000023841858 -6.300000190734863 55.29999542236328 -158.53711571957942 63.66678100084505 150.16972086402976 3.053184676784711e-07 -7.139017830686183e-07 13.829983032227034 135.9055994132628 -19.31908195155924 -175.94191631804998 1.4107937116925433e-06 7.23400824117516e-06 115.33715414038448 1.5902773407317584e-15 0.0 0.0 -58.98353018835064 0.08772503792858978 35.86024488687783 2.9084313109585354e-06 -1.8240171439027527e-06 -23.83921485005019 -1.5902773407317584e-15 1.5902773407317584e-15 2.2069531490250793e-32 163.5838652618153 -54.84761218360323 -135.3771063384534 -7.2307664973213415 -0.6854230208723199 0.030937107281872583 6.620859447075238e-32 2.385416011097637e-15 -3.1805546814635164e-15 171.98956892898883 -63.74062030794919 110.17547127181567 5.974647094242366 -8.452943577395684 -0.8182330699647333 -7.951386703658792e-16 -1.6207312188152926e-32 2.33571984419977e-15
1.4000000953674316 -6.199999809265137 55.5 -157.94356217233843 63.85712357650662 150.11383725248518 -5.231324958030223e-07 6.62569980263086e-06 13.695773442716709 135.85022045516303 -19.30851546986814 -175.80715439886154 5.844128117719392e-06 -1.0265096124331879e-06 115.34861414782482 3.975693351829396e-15 -1.5902773407317584e-15 -3.1805546814635168e-15 -64.57733121358697 3.0982033302130687 38.06440545063463 -4.6431570715053275e-07 -3.2123304264652483e-06 -25.372625930482965 -6.3611093629270335e-15 1.7655625192200634e-31 -3.1805546814635168e-15 163.89103644738987 -55.69337092236315 -135.38325471695455 -7.374199348640463 -1.1675405844034745 0.06084753883758834 1.5902773407317584e-15 1.987846675914698e-15 2.087239009710433e-15 173.12471358996973 -63.961353926598285 110.81936045696052 5.7545677390946715 -8.329788239945561 -0.8603921908935281 1.987846675914698e-16 4.569082691340984e-33 2.6338968455869747e-15
